# xmcd
#
# Track frame offsets:
#	150
#	21152
#	40540
#	60682
#	79162
#	91615
#	112265
#	123562
#	144490
#	153707
#	169485
#	182815
#	194305
#
# Disc length: 2923 seconds
# Revision: 1
# Processed by: cddbd v1.5.2PL0 Copyright (c) Steve Scherf et al.
# Submitted via: dBpowerAMP V12.0
#
DISCID=b20b690d
DTITLE=Guy Davis - You Don't Know My Mind
DYEAR=1998
DGENRE=Blues
TTITLE0=Best I Can
TTITLE1=Po' Boy
TTITLE2=If You Love Somebody
TTITLE3=Grandma's Tea House
TTITLE4=You Don't Know My Mind
TTITLE5=Georgia Flood
TTITLE6=You Remembered My Name
TTITLE7=Home Cooked Meal
TTITLE8=Dorothy is Harlem Bound
TTITLE9=Pretty Little Woman
TTITLE10=If I Could Fly Like An Eagle
TTITLE11=Marlboro Blues
TTITLE12=Everything Is Gonna Be Alright
EXTD=
EXTT0=
EXTT1=
EXTT2=
EXTT3=
EXTT4=
EXTT5=
EXTT6=
EXTT7=
EXTT8=
EXTT9=
EXTT10=
EXTT11=
EXTT12=
PLAYORDER=
